<mxfile host="app.diagrams.net" modified="2022-04-10T13:45:20.976Z" agent="5.0 (Windows NT 10.0; Win64; x64) AppleWebKit/537.36 (KHTML, like Gecko) Chrome/100.0.4896.75 Safari/537.36" etag="IcZZsmylBnPt0Fv38s57" version="17.4.2" type="github">
  <diagram id="Z2IXjDK4iMMKSUn22XJM" name="Page-1">
    <mxGraphModel dx="1221" dy="672" grid="1" gridSize="10" guides="1" tooltips="1" connect="1" arrows="1" fold="1" page="1" pageScale="1" pageWidth="827" pageHeight="1169" math="0" shadow="0">
      <root>
        <mxCell id="0" />
        <mxCell id="1" parent="0" />
        <mxCell id="54CzL21Gr6Z5AYCmhDpJ-4" value="" style="edgeStyle=orthogonalEdgeStyle;rounded=0;orthogonalLoop=1;jettySize=auto;html=1;" edge="1" parent="1" source="54CzL21Gr6Z5AYCmhDpJ-1" target="54CzL21Gr6Z5AYCmhDpJ-3">
          <mxGeometry relative="1" as="geometry" />
        </mxCell>
        <mxCell id="54CzL21Gr6Z5AYCmhDpJ-1" value="start" style="strokeWidth=2;html=1;shape=mxgraph.flowchart.start_1;whiteSpace=wrap;" vertex="1" parent="1">
          <mxGeometry x="204.01999999999998" y="26.5" width="100" height="40" as="geometry" />
        </mxCell>
        <mxCell id="54CzL21Gr6Z5AYCmhDpJ-11" value="" style="edgeStyle=orthogonalEdgeStyle;rounded=0;orthogonalLoop=1;jettySize=auto;html=1;" edge="1" parent="1" source="54CzL21Gr6Z5AYCmhDpJ-3" target="54CzL21Gr6Z5AYCmhDpJ-10">
          <mxGeometry relative="1" as="geometry" />
        </mxCell>
        <mxCell id="54CzL21Gr6Z5AYCmhDpJ-3" value="string + %flag(s)" style="html=1;strokeWidth=2;shape=manualInput;whiteSpace=wrap;rounded=1;size=26;arcSize=11;verticalAlign=middle;horizontal=1;spacingTop=18;" vertex="1" parent="1">
          <mxGeometry x="204.01999999999998" y="106.5" width="100" height="60" as="geometry" />
        </mxCell>
        <mxCell id="54CzL21Gr6Z5AYCmhDpJ-13" value="" style="edgeStyle=orthogonalEdgeStyle;rounded=0;orthogonalLoop=1;jettySize=auto;html=1;" edge="1" parent="1" source="54CzL21Gr6Z5AYCmhDpJ-10" target="54CzL21Gr6Z5AYCmhDpJ-12">
          <mxGeometry relative="1" as="geometry" />
        </mxCell>
        <mxCell id="54CzL21Gr6Z5AYCmhDpJ-10" value="ft_printf" style="rounded=1;whiteSpace=wrap;html=1;absoluteArcSize=1;arcSize=14;strokeWidth=2;" vertex="1" parent="1">
          <mxGeometry x="204.01999999999998" y="206.5" width="100" height="50" as="geometry" />
        </mxCell>
        <mxCell id="54CzL21Gr6Z5AYCmhDpJ-15" value="" style="edgeStyle=orthogonalEdgeStyle;rounded=0;orthogonalLoop=1;jettySize=auto;html=1;" edge="1" parent="1" source="54CzL21Gr6Z5AYCmhDpJ-12" target="54CzL21Gr6Z5AYCmhDpJ-14">
          <mxGeometry relative="1" as="geometry" />
        </mxCell>
        <mxCell id="54CzL21Gr6Z5AYCmhDpJ-12" value="ft_printf_core" style="rounded=1;whiteSpace=wrap;html=1;absoluteArcSize=1;arcSize=14;strokeWidth=2;" vertex="1" parent="1">
          <mxGeometry x="204.01999999999998" y="296.5" width="100" height="50" as="geometry" />
        </mxCell>
        <mxCell id="54CzL21Gr6Z5AYCmhDpJ-17" value="" style="edgeStyle=orthogonalEdgeStyle;rounded=0;orthogonalLoop=1;jettySize=auto;html=1;" edge="1" parent="1" source="54CzL21Gr6Z5AYCmhDpJ-14" target="54CzL21Gr6Z5AYCmhDpJ-16">
          <mxGeometry relative="1" as="geometry" />
        </mxCell>
        <mxCell id="54CzL21Gr6Z5AYCmhDpJ-18" value="Yes" style="edgeLabel;html=1;align=center;verticalAlign=middle;resizable=0;points=[];fontSize=13;" vertex="1" connectable="0" parent="54CzL21Gr6Z5AYCmhDpJ-17">
          <mxGeometry x="-0.0329" y="5" relative="1" as="geometry">
            <mxPoint x="-5" y="-2" as="offset" />
          </mxGeometry>
        </mxCell>
        <mxCell id="54CzL21Gr6Z5AYCmhDpJ-245" style="edgeStyle=orthogonalEdgeStyle;rounded=0;orthogonalLoop=1;jettySize=auto;html=1;exitX=1;exitY=0.5;exitDx=0;exitDy=0;exitPerimeter=0;entryX=0;entryY=0.5;entryDx=0;entryDy=0;fontSize=12;" edge="1" parent="1" source="54CzL21Gr6Z5AYCmhDpJ-14" target="54CzL21Gr6Z5AYCmhDpJ-246">
          <mxGeometry relative="1" as="geometry">
            <mxPoint x="340" y="436.5" as="targetPoint" />
          </mxGeometry>
        </mxCell>
        <mxCell id="54CzL21Gr6Z5AYCmhDpJ-14" value="string is valid?" style="strokeWidth=2;html=1;shape=mxgraph.flowchart.decision;whiteSpace=wrap;" vertex="1" parent="1">
          <mxGeometry x="204.01999999999998" y="386.5" width="100" height="100" as="geometry" />
        </mxCell>
        <mxCell id="54CzL21Gr6Z5AYCmhDpJ-20" value="" style="edgeStyle=orthogonalEdgeStyle;rounded=0;orthogonalLoop=1;jettySize=auto;html=1;fontSize=13;exitX=0.5;exitY=1;exitDx=0;exitDy=0;exitPerimeter=0;" edge="1" parent="1" source="54CzL21Gr6Z5AYCmhDpJ-16" target="54CzL21Gr6Z5AYCmhDpJ-19">
          <mxGeometry relative="1" as="geometry">
            <mxPoint x="390.02" y="726.5" as="sourcePoint" />
          </mxGeometry>
        </mxCell>
        <mxCell id="54CzL21Gr6Z5AYCmhDpJ-21" value="Yes" style="edgeLabel;html=1;align=center;verticalAlign=middle;resizable=0;points=[];fontSize=13;" vertex="1" connectable="0" parent="54CzL21Gr6Z5AYCmhDpJ-20">
          <mxGeometry x="-0.2474" y="-1" relative="1" as="geometry">
            <mxPoint x="1" y="2" as="offset" />
          </mxGeometry>
        </mxCell>
        <mxCell id="54CzL21Gr6Z5AYCmhDpJ-29" value="" style="edgeStyle=orthogonalEdgeStyle;rounded=0;orthogonalLoop=1;jettySize=auto;html=1;fontSize=13;exitX=0;exitY=0.5;exitDx=0;exitDy=0;exitPerimeter=0;" edge="1" parent="1" source="54CzL21Gr6Z5AYCmhDpJ-16" target="54CzL21Gr6Z5AYCmhDpJ-28">
          <mxGeometry relative="1" as="geometry" />
        </mxCell>
        <mxCell id="54CzL21Gr6Z5AYCmhDpJ-30" value="No" style="edgeLabel;html=1;align=center;verticalAlign=middle;resizable=0;points=[];fontSize=13;" vertex="1" connectable="0" parent="54CzL21Gr6Z5AYCmhDpJ-29">
          <mxGeometry x="0.1971" relative="1" as="geometry">
            <mxPoint x="8" y="-1" as="offset" />
          </mxGeometry>
        </mxCell>
        <mxCell id="54CzL21Gr6Z5AYCmhDpJ-16" value="string == &#39;%&#39;&amp;nbsp;&lt;br style=&quot;font-size: 10px;&quot;&gt;&amp;amp;&amp;amp;&lt;br style=&quot;font-size: 10px;&quot;&gt;string + 1 is&amp;nbsp;&lt;br style=&quot;font-size: 10px;&quot;&gt;valid?" style="strokeWidth=2;html=1;shape=mxgraph.flowchart.decision;whiteSpace=wrap;fontSize=10;spacingTop=9;" vertex="1" parent="1">
          <mxGeometry x="204.01999999999998" y="531" width="100" height="100" as="geometry" />
        </mxCell>
        <mxCell id="54CzL21Gr6Z5AYCmhDpJ-26" value="" style="edgeStyle=orthogonalEdgeStyle;rounded=0;orthogonalLoop=1;jettySize=auto;html=1;fontSize=13;exitX=0;exitY=0.5;exitDx=0;exitDy=0;exitPerimeter=0;" edge="1" parent="1" source="54CzL21Gr6Z5AYCmhDpJ-19" target="54CzL21Gr6Z5AYCmhDpJ-25">
          <mxGeometry relative="1" as="geometry">
            <mxPoint x="290.02" y="786.5" as="sourcePoint" />
          </mxGeometry>
        </mxCell>
        <mxCell id="54CzL21Gr6Z5AYCmhDpJ-27" value="No" style="edgeLabel;html=1;align=center;verticalAlign=middle;resizable=0;points=[];fontSize=13;" vertex="1" connectable="0" parent="54CzL21Gr6Z5AYCmhDpJ-26">
          <mxGeometry x="0.2648" relative="1" as="geometry">
            <mxPoint x="9" y="-1" as="offset" />
          </mxGeometry>
        </mxCell>
        <mxCell id="54CzL21Gr6Z5AYCmhDpJ-34" value="" style="edgeStyle=orthogonalEdgeStyle;rounded=0;orthogonalLoop=1;jettySize=auto;html=1;fontSize=13;entryX=0.5;entryY=0;entryDx=0;entryDy=0;entryPerimeter=0;" edge="1" parent="1" source="54CzL21Gr6Z5AYCmhDpJ-19" target="54CzL21Gr6Z5AYCmhDpJ-160">
          <mxGeometry relative="1" as="geometry">
            <mxPoint x="254.01999999999998" y="816.5" as="targetPoint" />
          </mxGeometry>
        </mxCell>
        <mxCell id="54CzL21Gr6Z5AYCmhDpJ-35" value="Yes" style="edgeLabel;html=1;align=center;verticalAlign=middle;resizable=0;points=[];fontSize=13;" vertex="1" connectable="0" parent="54CzL21Gr6Z5AYCmhDpJ-34">
          <mxGeometry x="-0.7222" y="-1" relative="1" as="geometry">
            <mxPoint y="9" as="offset" />
          </mxGeometry>
        </mxCell>
        <mxCell id="54CzL21Gr6Z5AYCmhDpJ-19" value="string contain&lt;br&gt;&quot;cspdiuxX%&quot;&lt;br&gt;?" style="strokeWidth=2;html=1;shape=mxgraph.flowchart.decision;whiteSpace=wrap;fontSize=10;spacingTop=9;" vertex="1" parent="1">
          <mxGeometry x="204.01999999999998" y="676.5" width="100" height="100" as="geometry" />
        </mxCell>
        <mxCell id="54CzL21Gr6Z5AYCmhDpJ-39" style="edgeStyle=orthogonalEdgeStyle;rounded=0;orthogonalLoop=1;jettySize=auto;html=1;exitX=0;exitY=0.5;exitDx=0;exitDy=0;entryX=0;entryY=0.5;entryDx=0;entryDy=0;entryPerimeter=0;fontSize=13;" edge="1" parent="1" source="54CzL21Gr6Z5AYCmhDpJ-25" target="54CzL21Gr6Z5AYCmhDpJ-14">
          <mxGeometry relative="1" as="geometry" />
        </mxCell>
        <mxCell id="54CzL21Gr6Z5AYCmhDpJ-25" value="ft_putchar_plus" style="rounded=1;whiteSpace=wrap;html=1;absoluteArcSize=1;arcSize=14;strokeWidth=2;" vertex="1" parent="1">
          <mxGeometry x="60.019999999999996" y="701.5" width="100" height="50" as="geometry" />
        </mxCell>
        <mxCell id="54CzL21Gr6Z5AYCmhDpJ-37" style="edgeStyle=orthogonalEdgeStyle;rounded=0;orthogonalLoop=1;jettySize=auto;html=1;entryX=0;entryY=0.5;entryDx=0;entryDy=0;entryPerimeter=0;fontSize=13;exitX=0;exitY=0.5;exitDx=0;exitDy=0;" edge="1" parent="1" source="54CzL21Gr6Z5AYCmhDpJ-28" target="54CzL21Gr6Z5AYCmhDpJ-14">
          <mxGeometry relative="1" as="geometry" />
        </mxCell>
        <mxCell id="54CzL21Gr6Z5AYCmhDpJ-28" value="ft_putchar_plus" style="rounded=1;whiteSpace=wrap;html=1;absoluteArcSize=1;arcSize=14;strokeWidth=2;" vertex="1" parent="1">
          <mxGeometry x="60.019999999999996" y="556.5" width="100" height="50" as="geometry" />
        </mxCell>
        <mxCell id="54CzL21Gr6Z5AYCmhDpJ-109" value="" style="edgeStyle=orthogonalEdgeStyle;rounded=0;orthogonalLoop=1;jettySize=auto;html=1;fontSize=13;" edge="1" parent="1" source="54CzL21Gr6Z5AYCmhDpJ-110" target="54CzL21Gr6Z5AYCmhDpJ-115">
          <mxGeometry relative="1" as="geometry" />
        </mxCell>
        <mxCell id="54CzL21Gr6Z5AYCmhDpJ-110" value="ft_filter_flags" style="rounded=1;whiteSpace=wrap;html=1;absoluteArcSize=1;arcSize=14;strokeWidth=2;" vertex="1" parent="1">
          <mxGeometry x="460" y="60" width="100" height="50" as="geometry" />
        </mxCell>
        <mxCell id="54CzL21Gr6Z5AYCmhDpJ-111" value="" style="edgeStyle=orthogonalEdgeStyle;rounded=0;orthogonalLoop=1;jettySize=auto;html=1;fontSize=13;" edge="1" parent="1" source="54CzL21Gr6Z5AYCmhDpJ-115" target="54CzL21Gr6Z5AYCmhDpJ-120">
          <mxGeometry relative="1" as="geometry">
            <Array as="points">
              <mxPoint x="510" y="230" />
              <mxPoint x="510" y="230" />
            </Array>
          </mxGeometry>
        </mxCell>
        <mxCell id="54CzL21Gr6Z5AYCmhDpJ-112" value="No" style="edgeLabel;html=1;align=center;verticalAlign=middle;resizable=0;points=[];fontSize=10;" vertex="1" connectable="0" parent="54CzL21Gr6Z5AYCmhDpJ-111">
          <mxGeometry x="0.2534" relative="1" as="geometry">
            <mxPoint y="-8" as="offset" />
          </mxGeometry>
        </mxCell>
        <mxCell id="54CzL21Gr6Z5AYCmhDpJ-113" style="edgeStyle=orthogonalEdgeStyle;rounded=0;orthogonalLoop=1;jettySize=auto;html=1;entryX=0;entryY=0.5;entryDx=0;entryDy=0;fontSize=13;exitX=1;exitY=0.5;exitDx=0;exitDy=0;exitPerimeter=0;" edge="1" parent="1" source="54CzL21Gr6Z5AYCmhDpJ-115" target="54CzL21Gr6Z5AYCmhDpJ-121">
          <mxGeometry relative="1" as="geometry" />
        </mxCell>
        <mxCell id="54CzL21Gr6Z5AYCmhDpJ-114" value="Yes" style="edgeLabel;html=1;align=center;verticalAlign=middle;resizable=0;points=[];fontSize=10;" vertex="1" connectable="0" parent="54CzL21Gr6Z5AYCmhDpJ-113">
          <mxGeometry x="-0.2469" relative="1" as="geometry">
            <mxPoint x="2" as="offset" />
          </mxGeometry>
        </mxCell>
        <mxCell id="54CzL21Gr6Z5AYCmhDpJ-115" value="flag == &#39;c&#39;&amp;nbsp;&lt;br&gt;?" style="strokeWidth=2;html=1;shape=mxgraph.flowchart.decision;whiteSpace=wrap;fontSize=13;" vertex="1" parent="1">
          <mxGeometry x="460" y="130" width="100" height="100" as="geometry" />
        </mxCell>
        <mxCell id="54CzL21Gr6Z5AYCmhDpJ-116" style="edgeStyle=orthogonalEdgeStyle;rounded=0;orthogonalLoop=1;jettySize=auto;html=1;entryX=0;entryY=0.5;entryDx=0;entryDy=0;fontSize=13;" edge="1" parent="1" source="54CzL21Gr6Z5AYCmhDpJ-120" target="54CzL21Gr6Z5AYCmhDpJ-122">
          <mxGeometry relative="1" as="geometry" />
        </mxCell>
        <mxCell id="54CzL21Gr6Z5AYCmhDpJ-117" value="Yes" style="edgeLabel;html=1;align=center;verticalAlign=middle;resizable=0;points=[];fontSize=10;" vertex="1" connectable="0" parent="54CzL21Gr6Z5AYCmhDpJ-116">
          <mxGeometry x="0.26" y="-1" relative="1" as="geometry">
            <mxPoint x="-11" y="-1" as="offset" />
          </mxGeometry>
        </mxCell>
        <mxCell id="54CzL21Gr6Z5AYCmhDpJ-118" value="" style="edgeStyle=orthogonalEdgeStyle;rounded=0;orthogonalLoop=1;jettySize=auto;html=1;fontSize=13;" edge="1" parent="1" source="54CzL21Gr6Z5AYCmhDpJ-120" target="54CzL21Gr6Z5AYCmhDpJ-128">
          <mxGeometry relative="1" as="geometry" />
        </mxCell>
        <mxCell id="54CzL21Gr6Z5AYCmhDpJ-119" value="No" style="edgeLabel;html=1;align=center;verticalAlign=middle;resizable=0;points=[];fontSize=10;" vertex="1" connectable="0" parent="54CzL21Gr6Z5AYCmhDpJ-118">
          <mxGeometry x="-0.7246" y="2" relative="1" as="geometry">
            <mxPoint x="-2" y="4" as="offset" />
          </mxGeometry>
        </mxCell>
        <mxCell id="54CzL21Gr6Z5AYCmhDpJ-120" value="flag == &#39;s&#39;&amp;nbsp;&lt;br&gt;?" style="strokeWidth=2;html=1;shape=mxgraph.flowchart.decision;whiteSpace=wrap;fontSize=13;" vertex="1" parent="1">
          <mxGeometry x="460" y="260" width="100" height="100" as="geometry" />
        </mxCell>
        <mxCell id="54CzL21Gr6Z5AYCmhDpJ-187" style="edgeStyle=orthogonalEdgeStyle;rounded=0;orthogonalLoop=1;jettySize=auto;html=1;exitX=1;exitY=0.5;exitDx=0;exitDy=0;entryX=0;entryY=0.5;entryDx=0;entryDy=0;fontSize=10;" edge="1" parent="1" source="54CzL21Gr6Z5AYCmhDpJ-121" target="54CzL21Gr6Z5AYCmhDpJ-188">
          <mxGeometry relative="1" as="geometry">
            <mxPoint x="760" y="181.5" as="targetPoint" />
          </mxGeometry>
        </mxCell>
        <mxCell id="54CzL21Gr6Z5AYCmhDpJ-121" value="ft_print_character" style="rounded=1;whiteSpace=wrap;html=1;absoluteArcSize=1;arcSize=14;strokeWidth=2;" vertex="1" parent="1">
          <mxGeometry x="616" y="156.5" width="100" height="50" as="geometry" />
        </mxCell>
        <mxCell id="54CzL21Gr6Z5AYCmhDpJ-196" style="edgeStyle=orthogonalEdgeStyle;rounded=0;orthogonalLoop=1;jettySize=auto;html=1;entryX=0;entryY=0.5;entryDx=0;entryDy=0;entryPerimeter=0;fontSize=12;" edge="1" parent="1" source="54CzL21Gr6Z5AYCmhDpJ-122" target="54CzL21Gr6Z5AYCmhDpJ-195">
          <mxGeometry relative="1" as="geometry" />
        </mxCell>
        <mxCell id="54CzL21Gr6Z5AYCmhDpJ-122" value="ft_print_string" style="rounded=1;whiteSpace=wrap;html=1;absoluteArcSize=1;arcSize=14;strokeWidth=2;" vertex="1" parent="1">
          <mxGeometry x="616" y="285" width="100" height="50" as="geometry" />
        </mxCell>
        <mxCell id="54CzL21Gr6Z5AYCmhDpJ-123" style="edgeStyle=orthogonalEdgeStyle;rounded=0;orthogonalLoop=1;jettySize=auto;html=1;entryX=0;entryY=0.5;entryDx=0;entryDy=0;fontSize=13;" edge="1" parent="1" source="54CzL21Gr6Z5AYCmhDpJ-128" target="54CzL21Gr6Z5AYCmhDpJ-129">
          <mxGeometry relative="1" as="geometry" />
        </mxCell>
        <mxCell id="54CzL21Gr6Z5AYCmhDpJ-124" value="Yes" style="edgeLabel;html=1;align=center;verticalAlign=middle;resizable=0;points=[];fontSize=10;" vertex="1" connectable="0" parent="54CzL21Gr6Z5AYCmhDpJ-123">
          <mxGeometry x="0.2919" y="-1" relative="1" as="geometry">
            <mxPoint x="-12" y="-1" as="offset" />
          </mxGeometry>
        </mxCell>
        <mxCell id="54CzL21Gr6Z5AYCmhDpJ-125" value="" style="edgeStyle=orthogonalEdgeStyle;rounded=0;orthogonalLoop=1;jettySize=auto;html=1;fontSize=13;" edge="1" parent="1" source="54CzL21Gr6Z5AYCmhDpJ-128" target="54CzL21Gr6Z5AYCmhDpJ-134">
          <mxGeometry relative="1" as="geometry" />
        </mxCell>
        <mxCell id="54CzL21Gr6Z5AYCmhDpJ-127" value="No" style="edgeLabel;html=1;align=center;verticalAlign=middle;resizable=0;points=[];fontSize=10;" vertex="1" connectable="0" parent="54CzL21Gr6Z5AYCmhDpJ-125">
          <mxGeometry x="-0.7516" y="-2" relative="1" as="geometry">
            <mxPoint x="2" y="5" as="offset" />
          </mxGeometry>
        </mxCell>
        <mxCell id="54CzL21Gr6Z5AYCmhDpJ-128" value="flag == &#39;p&#39;&amp;nbsp;&lt;br&gt;?" style="strokeWidth=2;html=1;shape=mxgraph.flowchart.decision;whiteSpace=wrap;fontSize=13;" vertex="1" parent="1">
          <mxGeometry x="460" y="490" width="100" height="100" as="geometry" />
        </mxCell>
        <mxCell id="54CzL21Gr6Z5AYCmhDpJ-225" style="edgeStyle=orthogonalEdgeStyle;rounded=0;orthogonalLoop=1;jettySize=auto;html=1;exitX=1;exitY=0.5;exitDx=0;exitDy=0;entryX=0;entryY=0.5;entryDx=0;entryDy=0;entryPerimeter=0;fontSize=12;" edge="1" parent="1" source="54CzL21Gr6Z5AYCmhDpJ-129" target="54CzL21Gr6Z5AYCmhDpJ-224">
          <mxGeometry relative="1" as="geometry" />
        </mxCell>
        <mxCell id="54CzL21Gr6Z5AYCmhDpJ-129" value="ft_print_pointer" style="rounded=1;whiteSpace=wrap;html=1;absoluteArcSize=1;arcSize=14;strokeWidth=2;" vertex="1" parent="1">
          <mxGeometry x="616" y="515" width="100" height="50" as="geometry" />
        </mxCell>
        <mxCell id="54CzL21Gr6Z5AYCmhDpJ-130" style="edgeStyle=orthogonalEdgeStyle;rounded=0;orthogonalLoop=1;jettySize=auto;html=1;entryX=0;entryY=0.5;entryDx=0;entryDy=0;fontSize=13;" edge="1" parent="1" source="54CzL21Gr6Z5AYCmhDpJ-134" target="54CzL21Gr6Z5AYCmhDpJ-135">
          <mxGeometry relative="1" as="geometry" />
        </mxCell>
        <mxCell id="54CzL21Gr6Z5AYCmhDpJ-131" value="Yes" style="edgeLabel;html=1;align=center;verticalAlign=middle;resizable=0;points=[];fontSize=10;" vertex="1" connectable="0" parent="54CzL21Gr6Z5AYCmhDpJ-130">
          <mxGeometry x="0.1802" relative="1" as="geometry">
            <mxPoint x="-10" as="offset" />
          </mxGeometry>
        </mxCell>
        <mxCell id="54CzL21Gr6Z5AYCmhDpJ-132" value="" style="edgeStyle=orthogonalEdgeStyle;rounded=0;orthogonalLoop=1;jettySize=auto;html=1;fontSize=13;" edge="1" parent="1" source="54CzL21Gr6Z5AYCmhDpJ-134" target="54CzL21Gr6Z5AYCmhDpJ-140">
          <mxGeometry relative="1" as="geometry" />
        </mxCell>
        <mxCell id="54CzL21Gr6Z5AYCmhDpJ-133" value="No" style="edgeLabel;html=1;align=center;verticalAlign=middle;resizable=0;points=[];fontSize=10;" vertex="1" connectable="0" parent="54CzL21Gr6Z5AYCmhDpJ-132">
          <mxGeometry x="-0.7446" relative="1" as="geometry">
            <mxPoint y="9" as="offset" />
          </mxGeometry>
        </mxCell>
        <mxCell id="54CzL21Gr6Z5AYCmhDpJ-134" value="flag == &#39;d&#39;&lt;br&gt;?" style="strokeWidth=2;html=1;shape=mxgraph.flowchart.decision;whiteSpace=wrap;fontSize=13;" vertex="1" parent="1">
          <mxGeometry x="460" y="760" width="100" height="100" as="geometry" />
        </mxCell>
        <mxCell id="54CzL21Gr6Z5AYCmhDpJ-180" style="edgeStyle=orthogonalEdgeStyle;rounded=0;orthogonalLoop=1;jettySize=auto;html=1;entryX=0;entryY=0.5;entryDx=0;entryDy=0;entryPerimeter=0;fontSize=10;" edge="1" parent="1" target="54CzL21Gr6Z5AYCmhDpJ-173">
          <mxGeometry relative="1" as="geometry">
            <mxPoint x="890" y="812" as="sourcePoint" />
          </mxGeometry>
        </mxCell>
        <mxCell id="54CzL21Gr6Z5AYCmhDpJ-135" value="ft_print_decimal" style="rounded=1;whiteSpace=wrap;html=1;absoluteArcSize=1;arcSize=14;strokeWidth=2;" vertex="1" parent="1">
          <mxGeometry x="616" y="785" width="100" height="50" as="geometry" />
        </mxCell>
        <mxCell id="54CzL21Gr6Z5AYCmhDpJ-136" style="edgeStyle=orthogonalEdgeStyle;rounded=0;orthogonalLoop=1;jettySize=auto;html=1;entryX=0;entryY=0.5;entryDx=0;entryDy=0;fontSize=13;" edge="1" parent="1" source="54CzL21Gr6Z5AYCmhDpJ-140" target="54CzL21Gr6Z5AYCmhDpJ-141">
          <mxGeometry relative="1" as="geometry" />
        </mxCell>
        <mxCell id="54CzL21Gr6Z5AYCmhDpJ-137" value="Yes" style="edgeLabel;html=1;align=center;verticalAlign=middle;resizable=0;points=[];fontSize=10;" vertex="1" connectable="0" parent="54CzL21Gr6Z5AYCmhDpJ-136">
          <mxGeometry x="0.2759" y="1" relative="1" as="geometry">
            <mxPoint x="-12" as="offset" />
          </mxGeometry>
        </mxCell>
        <mxCell id="54CzL21Gr6Z5AYCmhDpJ-138" value="" style="edgeStyle=orthogonalEdgeStyle;rounded=0;orthogonalLoop=1;jettySize=auto;html=1;fontSize=13;" edge="1" parent="1" source="54CzL21Gr6Z5AYCmhDpJ-140" target="54CzL21Gr6Z5AYCmhDpJ-146">
          <mxGeometry relative="1" as="geometry" />
        </mxCell>
        <mxCell id="54CzL21Gr6Z5AYCmhDpJ-139" value="No" style="edgeLabel;html=1;align=center;verticalAlign=middle;resizable=0;points=[];fontSize=10;" vertex="1" connectable="0" parent="54CzL21Gr6Z5AYCmhDpJ-138">
          <mxGeometry x="-0.7796" y="-1" relative="1" as="geometry">
            <mxPoint x="1" y="9" as="offset" />
          </mxGeometry>
        </mxCell>
        <mxCell id="54CzL21Gr6Z5AYCmhDpJ-140" value="flag == &#39;u&#39;&amp;nbsp;&lt;br&gt;?" style="strokeWidth=2;html=1;shape=mxgraph.flowchart.decision;whiteSpace=wrap;fontSize=13;" vertex="1" parent="1">
          <mxGeometry x="460" y="895" width="100" height="100" as="geometry" />
        </mxCell>
        <mxCell id="54CzL21Gr6Z5AYCmhDpJ-179" style="edgeStyle=orthogonalEdgeStyle;rounded=0;orthogonalLoop=1;jettySize=auto;html=1;entryX=0;entryY=0.5;entryDx=0;entryDy=0;entryPerimeter=0;fontSize=10;" edge="1" parent="1" target="54CzL21Gr6Z5AYCmhDpJ-174">
          <mxGeometry relative="1" as="geometry">
            <mxPoint x="890" y="947" as="sourcePoint" />
          </mxGeometry>
        </mxCell>
        <mxCell id="54CzL21Gr6Z5AYCmhDpJ-141" value="ft_print_positive_int" style="rounded=1;whiteSpace=wrap;html=1;absoluteArcSize=1;arcSize=14;strokeWidth=2;fontSize=10;" vertex="1" parent="1">
          <mxGeometry x="616" y="920" width="100" height="50" as="geometry" />
        </mxCell>
        <mxCell id="54CzL21Gr6Z5AYCmhDpJ-142" style="edgeStyle=orthogonalEdgeStyle;rounded=0;orthogonalLoop=1;jettySize=auto;html=1;entryX=0;entryY=0.5;entryDx=0;entryDy=0;fontSize=13;" edge="1" parent="1" source="54CzL21Gr6Z5AYCmhDpJ-146" target="54CzL21Gr6Z5AYCmhDpJ-147">
          <mxGeometry relative="1" as="geometry" />
        </mxCell>
        <mxCell id="54CzL21Gr6Z5AYCmhDpJ-143" value="Yes" style="edgeLabel;html=1;align=center;verticalAlign=middle;resizable=0;points=[];fontSize=10;" vertex="1" connectable="0" parent="54CzL21Gr6Z5AYCmhDpJ-142">
          <mxGeometry x="-0.1073" relative="1" as="geometry">
            <mxPoint x="-1" y="4" as="offset" />
          </mxGeometry>
        </mxCell>
        <mxCell id="54CzL21Gr6Z5AYCmhDpJ-144" value="" style="edgeStyle=orthogonalEdgeStyle;rounded=0;orthogonalLoop=1;jettySize=auto;html=1;fontSize=13;" edge="1" parent="1" source="54CzL21Gr6Z5AYCmhDpJ-146" target="54CzL21Gr6Z5AYCmhDpJ-152">
          <mxGeometry relative="1" as="geometry" />
        </mxCell>
        <mxCell id="54CzL21Gr6Z5AYCmhDpJ-145" value="No" style="edgeLabel;html=1;align=center;verticalAlign=middle;resizable=0;points=[];fontSize=10;" vertex="1" connectable="0" parent="54CzL21Gr6Z5AYCmhDpJ-144">
          <mxGeometry x="-0.6585" y="1" relative="1" as="geometry">
            <mxPoint x="-1" y="10" as="offset" />
          </mxGeometry>
        </mxCell>
        <mxCell id="54CzL21Gr6Z5AYCmhDpJ-146" value="flag == &#39;x&#39;&amp;nbsp;&lt;br&gt;?" style="strokeWidth=2;html=1;shape=mxgraph.flowchart.decision;whiteSpace=wrap;fontSize=13;" vertex="1" parent="1">
          <mxGeometry x="460" y="1030" width="100" height="100" as="geometry" />
        </mxCell>
        <mxCell id="54CzL21Gr6Z5AYCmhDpJ-178" style="edgeStyle=orthogonalEdgeStyle;rounded=0;orthogonalLoop=1;jettySize=auto;html=1;entryX=0;entryY=0.5;entryDx=0;entryDy=0;entryPerimeter=0;fontSize=10;" edge="1" parent="1" target="54CzL21Gr6Z5AYCmhDpJ-175">
          <mxGeometry relative="1" as="geometry">
            <mxPoint x="890" y="1150" as="sourcePoint" />
          </mxGeometry>
        </mxCell>
        <mxCell id="54CzL21Gr6Z5AYCmhDpJ-147" value="ft_print_hex" style="rounded=1;whiteSpace=wrap;html=1;absoluteArcSize=1;arcSize=14;strokeWidth=2;" vertex="1" parent="1">
          <mxGeometry x="616" y="1123" width="100" height="50" as="geometry" />
        </mxCell>
        <mxCell id="54CzL21Gr6Z5AYCmhDpJ-148" style="edgeStyle=orthogonalEdgeStyle;rounded=0;orthogonalLoop=1;jettySize=auto;html=1;entryX=0;entryY=0.5;entryDx=0;entryDy=0;fontSize=13;" edge="1" parent="1" source="54CzL21Gr6Z5AYCmhDpJ-152" target="54CzL21Gr6Z5AYCmhDpJ-147">
          <mxGeometry relative="1" as="geometry">
            <mxPoint x="416" y="1240" as="targetPoint" />
          </mxGeometry>
        </mxCell>
        <mxCell id="54CzL21Gr6Z5AYCmhDpJ-149" value="Yes" style="edgeLabel;html=1;align=center;verticalAlign=middle;resizable=0;points=[];fontSize=10;" vertex="1" connectable="0" parent="54CzL21Gr6Z5AYCmhDpJ-148">
          <mxGeometry x="0.2622" y="2" relative="1" as="geometry">
            <mxPoint y="11" as="offset" />
          </mxGeometry>
        </mxCell>
        <mxCell id="54CzL21Gr6Z5AYCmhDpJ-150" value="" style="edgeStyle=orthogonalEdgeStyle;rounded=0;orthogonalLoop=1;jettySize=auto;html=1;fontSize=13;" edge="1" parent="1" source="54CzL21Gr6Z5AYCmhDpJ-152" target="54CzL21Gr6Z5AYCmhDpJ-155">
          <mxGeometry relative="1" as="geometry" />
        </mxCell>
        <mxCell id="54CzL21Gr6Z5AYCmhDpJ-151" value="No" style="edgeLabel;html=1;align=center;verticalAlign=middle;resizable=0;points=[];fontSize=10;" vertex="1" connectable="0" parent="54CzL21Gr6Z5AYCmhDpJ-150">
          <mxGeometry x="-0.3427" y="2" relative="1" as="geometry">
            <mxPoint x="-2" y="-7" as="offset" />
          </mxGeometry>
        </mxCell>
        <mxCell id="54CzL21Gr6Z5AYCmhDpJ-152" value="flag == &#39;X&#39;&amp;nbsp;&lt;br&gt;?" style="strokeWidth=2;html=1;shape=mxgraph.flowchart.decision;whiteSpace=wrap;fontSize=13;" vertex="1" parent="1">
          <mxGeometry x="460" y="1173" width="100" height="100" as="geometry" />
        </mxCell>
        <mxCell id="54CzL21Gr6Z5AYCmhDpJ-153" style="edgeStyle=orthogonalEdgeStyle;rounded=0;orthogonalLoop=1;jettySize=auto;html=1;entryX=0;entryY=0.5;entryDx=0;entryDy=0;fontSize=13;" edge="1" parent="1" source="54CzL21Gr6Z5AYCmhDpJ-155" target="54CzL21Gr6Z5AYCmhDpJ-156">
          <mxGeometry relative="1" as="geometry" />
        </mxCell>
        <mxCell id="54CzL21Gr6Z5AYCmhDpJ-154" value="Yes" style="edgeLabel;html=1;align=center;verticalAlign=middle;resizable=0;points=[];fontSize=10;" vertex="1" connectable="0" parent="54CzL21Gr6Z5AYCmhDpJ-153">
          <mxGeometry x="0.2759" relative="1" as="geometry">
            <mxPoint x="-12" as="offset" />
          </mxGeometry>
        </mxCell>
        <mxCell id="54CzL21Gr6Z5AYCmhDpJ-220" style="edgeStyle=orthogonalEdgeStyle;rounded=0;orthogonalLoop=1;jettySize=auto;html=1;exitX=0.5;exitY=1;exitDx=0;exitDy=0;exitPerimeter=0;entryX=0.5;entryY=0;entryDx=0;entryDy=0;entryPerimeter=0;fontSize=12;" edge="1" parent="1" source="54CzL21Gr6Z5AYCmhDpJ-155" target="54CzL21Gr6Z5AYCmhDpJ-219">
          <mxGeometry relative="1" as="geometry" />
        </mxCell>
        <mxCell id="54CzL21Gr6Z5AYCmhDpJ-221" value="no" style="edgeLabel;html=1;align=center;verticalAlign=middle;resizable=0;points=[];fontSize=12;" vertex="1" connectable="0" parent="54CzL21Gr6Z5AYCmhDpJ-220">
          <mxGeometry x="0.2427" y="1" relative="1" as="geometry">
            <mxPoint x="-1" y="-11" as="offset" />
          </mxGeometry>
        </mxCell>
        <mxCell id="54CzL21Gr6Z5AYCmhDpJ-155" value="flag == &#39;%&#39;&amp;nbsp;&lt;br&gt;?" style="strokeWidth=2;html=1;shape=mxgraph.flowchart.decision;whiteSpace=wrap;fontSize=13;" vertex="1" parent="1">
          <mxGeometry x="460" y="1300" width="100" height="100" as="geometry" />
        </mxCell>
        <mxCell id="54CzL21Gr6Z5AYCmhDpJ-177" style="edgeStyle=orthogonalEdgeStyle;rounded=0;orthogonalLoop=1;jettySize=auto;html=1;entryX=0;entryY=0.5;entryDx=0;entryDy=0;entryPerimeter=0;fontSize=10;" edge="1" parent="1" target="54CzL21Gr6Z5AYCmhDpJ-176">
          <mxGeometry relative="1" as="geometry">
            <mxPoint x="890" y="1352" as="sourcePoint" />
          </mxGeometry>
        </mxCell>
        <mxCell id="54CzL21Gr6Z5AYCmhDpJ-156" value="ft_putchar_plus" style="rounded=1;whiteSpace=wrap;html=1;absoluteArcSize=1;arcSize=14;strokeWidth=2;" vertex="1" parent="1">
          <mxGeometry x="616" y="1325" width="100" height="50" as="geometry" />
        </mxCell>
        <mxCell id="54CzL21Gr6Z5AYCmhDpJ-160" value="1" style="verticalLabelPosition=bottom;verticalAlign=top;html=1;shape=mxgraph.flowchart.on-page_reference;fontSize=10;spacingTop=-28;spacing=0;" vertex="1" parent="1">
          <mxGeometry x="237.02000000000004" y="819.5" width="34" height="34" as="geometry" />
        </mxCell>
        <mxCell id="54CzL21Gr6Z5AYCmhDpJ-164" style="edgeStyle=orthogonalEdgeStyle;rounded=0;orthogonalLoop=1;jettySize=auto;html=1;entryX=0.5;entryY=0;entryDx=0;entryDy=0;fontSize=10;" edge="1" parent="1" source="54CzL21Gr6Z5AYCmhDpJ-161" target="54CzL21Gr6Z5AYCmhDpJ-110">
          <mxGeometry relative="1" as="geometry" />
        </mxCell>
        <mxCell id="54CzL21Gr6Z5AYCmhDpJ-161" value="1" style="verticalLabelPosition=bottom;verticalAlign=top;html=1;shape=mxgraph.flowchart.on-page_reference;fontSize=10;spacingTop=-28;spacing=0;" vertex="1" parent="1">
          <mxGeometry x="493" y="6" width="34" height="34" as="geometry" />
        </mxCell>
        <mxCell id="54CzL21Gr6Z5AYCmhDpJ-173" value="2" style="verticalLabelPosition=bottom;verticalAlign=top;html=1;shape=mxgraph.flowchart.on-page_reference;fontSize=10;spacingTop=-28;spacing=0;" vertex="1" parent="1">
          <mxGeometry x="934" y="795" width="34" height="34" as="geometry" />
        </mxCell>
        <mxCell id="54CzL21Gr6Z5AYCmhDpJ-174" value="2" style="verticalLabelPosition=bottom;verticalAlign=top;html=1;shape=mxgraph.flowchart.on-page_reference;fontSize=10;spacingTop=-28;spacing=0;" vertex="1" parent="1">
          <mxGeometry x="934" y="930" width="34" height="34" as="geometry" />
        </mxCell>
        <mxCell id="54CzL21Gr6Z5AYCmhDpJ-175" value="2" style="verticalLabelPosition=bottom;verticalAlign=top;html=1;shape=mxgraph.flowchart.on-page_reference;fontSize=10;spacingTop=-28;spacing=0;" vertex="1" parent="1">
          <mxGeometry x="934" y="1133" width="34" height="34" as="geometry" />
        </mxCell>
        <mxCell id="54CzL21Gr6Z5AYCmhDpJ-176" value="2" style="verticalLabelPosition=bottom;verticalAlign=top;html=1;shape=mxgraph.flowchart.on-page_reference;fontSize=10;spacingTop=-28;spacing=0;" vertex="1" parent="1">
          <mxGeometry x="934" y="1335" width="34" height="34" as="geometry" />
        </mxCell>
        <mxCell id="54CzL21Gr6Z5AYCmhDpJ-194" style="edgeStyle=orthogonalEdgeStyle;rounded=0;orthogonalLoop=1;jettySize=auto;html=1;exitX=1;exitY=0.5;exitDx=0;exitDy=0;entryX=0;entryY=0.5;entryDx=0;entryDy=0;entryPerimeter=0;fontSize=10;" edge="1" parent="1" source="54CzL21Gr6Z5AYCmhDpJ-188" target="54CzL21Gr6Z5AYCmhDpJ-192">
          <mxGeometry relative="1" as="geometry" />
        </mxCell>
        <mxCell id="54CzL21Gr6Z5AYCmhDpJ-188" value="ft_putchar_plus" style="rounded=1;whiteSpace=wrap;html=1;absoluteArcSize=1;arcSize=14;strokeWidth=2;" vertex="1" parent="1">
          <mxGeometry x="760" y="156.5" width="100" height="50" as="geometry" />
        </mxCell>
        <mxCell id="54CzL21Gr6Z5AYCmhDpJ-192" value="character" style="strokeWidth=2;html=1;shape=mxgraph.flowchart.display;whiteSpace=wrap;fontSize=12;" vertex="1" parent="1">
          <mxGeometry x="901" y="151.5" width="100" height="60" as="geometry" />
        </mxCell>
        <mxCell id="54CzL21Gr6Z5AYCmhDpJ-198" style="edgeStyle=orthogonalEdgeStyle;rounded=0;orthogonalLoop=1;jettySize=auto;html=1;entryX=0;entryY=0.5;entryDx=0;entryDy=0;entryPerimeter=0;fontSize=12;" edge="1" parent="1" source="54CzL21Gr6Z5AYCmhDpJ-195" target="54CzL21Gr6Z5AYCmhDpJ-197">
          <mxGeometry relative="1" as="geometry" />
        </mxCell>
        <mxCell id="54CzL21Gr6Z5AYCmhDpJ-199" value="yes" style="edgeLabel;html=1;align=center;verticalAlign=middle;resizable=0;points=[];fontSize=12;" vertex="1" connectable="0" parent="54CzL21Gr6Z5AYCmhDpJ-198">
          <mxGeometry x="-0.7536" relative="1" as="geometry">
            <mxPoint x="13" as="offset" />
          </mxGeometry>
        </mxCell>
        <mxCell id="54CzL21Gr6Z5AYCmhDpJ-215" style="edgeStyle=orthogonalEdgeStyle;rounded=0;orthogonalLoop=1;jettySize=auto;html=1;entryX=0.5;entryY=0;entryDx=0;entryDy=0;entryPerimeter=0;fontSize=12;" edge="1" parent="1" source="54CzL21Gr6Z5AYCmhDpJ-195" target="54CzL21Gr6Z5AYCmhDpJ-214">
          <mxGeometry relative="1" as="geometry">
            <Array as="points">
              <mxPoint x="810" y="390" />
              <mxPoint x="810" y="390" />
            </Array>
          </mxGeometry>
        </mxCell>
        <mxCell id="54CzL21Gr6Z5AYCmhDpJ-243" value="No" style="edgeLabel;html=1;align=center;verticalAlign=middle;resizable=0;points=[];fontSize=12;" vertex="1" connectable="0" parent="54CzL21Gr6Z5AYCmhDpJ-215">
          <mxGeometry x="-0.2422" relative="1" as="geometry">
            <mxPoint as="offset" />
          </mxGeometry>
        </mxCell>
        <mxCell id="54CzL21Gr6Z5AYCmhDpJ-195" value="string is valid&lt;br&gt;?" style="strokeWidth=2;html=1;shape=mxgraph.flowchart.decision;whiteSpace=wrap;fontSize=13;spacingTop=6;" vertex="1" parent="1">
          <mxGeometry x="760" y="260" width="100" height="100" as="geometry" />
        </mxCell>
        <mxCell id="54CzL21Gr6Z5AYCmhDpJ-197" value="string[i] is valid&lt;br&gt;?" style="strokeWidth=2;html=1;shape=mxgraph.flowchart.decision;whiteSpace=wrap;fontSize=13;spacingTop=11;" vertex="1" parent="1">
          <mxGeometry x="910" y="260" width="100" height="100" as="geometry" />
        </mxCell>
        <mxCell id="54CzL21Gr6Z5AYCmhDpJ-202" style="edgeStyle=orthogonalEdgeStyle;rounded=0;orthogonalLoop=1;jettySize=auto;html=1;entryX=0;entryY=0.5;entryDx=0;entryDy=0;fontSize=13;exitX=1;exitY=0.5;exitDx=0;exitDy=0;exitPerimeter=0;" edge="1" parent="1" target="54CzL21Gr6Z5AYCmhDpJ-222" source="54CzL21Gr6Z5AYCmhDpJ-197">
          <mxGeometry relative="1" as="geometry">
            <mxPoint x="1019" y="308.5" as="sourcePoint" />
            <mxPoint x="1059" y="310" as="targetPoint" />
          </mxGeometry>
        </mxCell>
        <mxCell id="54CzL21Gr6Z5AYCmhDpJ-203" value="Yes" style="edgeLabel;html=1;align=center;verticalAlign=middle;resizable=0;points=[];fontSize=10;" vertex="1" connectable="0" parent="54CzL21Gr6Z5AYCmhDpJ-202">
          <mxGeometry x="-0.2469" relative="1" as="geometry">
            <mxPoint x="2" as="offset" />
          </mxGeometry>
        </mxCell>
        <mxCell id="54CzL21Gr6Z5AYCmhDpJ-204" style="edgeStyle=orthogonalEdgeStyle;rounded=0;orthogonalLoop=1;jettySize=auto;html=1;entryX=0.5;entryY=0;entryDx=0;entryDy=0;entryPerimeter=0;fontSize=10;exitX=0.977;exitY=0.505;exitDx=0;exitDy=0;exitPerimeter=0;" edge="1" parent="1" source="54CzL21Gr6Z5AYCmhDpJ-222" target="54CzL21Gr6Z5AYCmhDpJ-197">
          <mxGeometry relative="1" as="geometry">
            <mxPoint x="1159" y="310" as="sourcePoint" />
            <mxPoint x="1493" y="310" as="targetPoint" />
            <Array as="points">
              <mxPoint x="1200" y="310" />
              <mxPoint x="1200" y="240" />
              <mxPoint x="960" y="240" />
            </Array>
          </mxGeometry>
        </mxCell>
        <mxCell id="54CzL21Gr6Z5AYCmhDpJ-214" value="&quot;(null)&quot;" style="strokeWidth=2;html=1;shape=mxgraph.flowchart.display;whiteSpace=wrap;fontSize=12;" vertex="1" parent="1">
          <mxGeometry x="760" y="400" width="100" height="60" as="geometry" />
        </mxCell>
        <mxCell id="54CzL21Gr6Z5AYCmhDpJ-219" value="2" style="verticalLabelPosition=bottom;verticalAlign=top;html=1;shape=mxgraph.flowchart.on-page_reference;fontSize=10;spacingTop=-28;spacing=0;" vertex="1" parent="1">
          <mxGeometry x="493" y="1450" width="34" height="34" as="geometry" />
        </mxCell>
        <mxCell id="54CzL21Gr6Z5AYCmhDpJ-222" value="&lt;span style=&quot;font-size: 12px;&quot;&gt;&lt;font style=&quot;font-size: 12px;&quot;&gt;ft_print_character&lt;/font&gt;&lt;/span&gt;" style="verticalLabelPosition=bottom;verticalAlign=top;html=1;shape=process;whiteSpace=wrap;rounded=1;size=0.14;arcSize=6;fontSize=12;" vertex="1" parent="1">
          <mxGeometry x="1059" y="280" width="100" height="60" as="geometry" />
        </mxCell>
        <mxCell id="54CzL21Gr6Z5AYCmhDpJ-226" style="edgeStyle=orthogonalEdgeStyle;rounded=0;orthogonalLoop=1;jettySize=auto;html=1;exitX=1;exitY=0.5;exitDx=0;exitDy=0;exitPerimeter=0;fontSize=12;" edge="1" parent="1" source="54CzL21Gr6Z5AYCmhDpJ-224">
          <mxGeometry relative="1" as="geometry">
            <mxPoint x="920" y="539.9545454545453" as="targetPoint" />
          </mxGeometry>
        </mxCell>
        <mxCell id="54CzL21Gr6Z5AYCmhDpJ-237" value="Yes" style="edgeLabel;html=1;align=center;verticalAlign=middle;resizable=0;points=[];fontSize=12;" vertex="1" connectable="0" parent="54CzL21Gr6Z5AYCmhDpJ-226">
          <mxGeometry x="-0.3" y="-1" relative="1" as="geometry">
            <mxPoint x="1" y="-1" as="offset" />
          </mxGeometry>
        </mxCell>
        <mxCell id="54CzL21Gr6Z5AYCmhDpJ-228" style="edgeStyle=orthogonalEdgeStyle;rounded=0;orthogonalLoop=1;jettySize=auto;html=1;entryX=0.5;entryY=0;entryDx=0;entryDy=0;fontSize=12;" edge="1" parent="1" source="54CzL21Gr6Z5AYCmhDpJ-224" target="54CzL21Gr6Z5AYCmhDpJ-227">
          <mxGeometry relative="1" as="geometry">
            <Array as="points">
              <mxPoint x="810" y="600" />
              <mxPoint x="810" y="600" />
            </Array>
          </mxGeometry>
        </mxCell>
        <mxCell id="54CzL21Gr6Z5AYCmhDpJ-229" value="No" style="edgeLabel;html=1;align=center;verticalAlign=middle;resizable=0;points=[];fontSize=12;" vertex="1" connectable="0" parent="54CzL21Gr6Z5AYCmhDpJ-228">
          <mxGeometry x="0.2946" relative="1" as="geometry">
            <mxPoint y="-8" as="offset" />
          </mxGeometry>
        </mxCell>
        <mxCell id="54CzL21Gr6Z5AYCmhDpJ-224" value="value is valid&lt;br&gt;?" style="strokeWidth=2;html=1;shape=mxgraph.flowchart.decision;whiteSpace=wrap;fontSize=12;spacingTop=7;" vertex="1" parent="1">
          <mxGeometry x="760" y="490" width="100" height="100" as="geometry" />
        </mxCell>
        <mxCell id="54CzL21Gr6Z5AYCmhDpJ-227" value="ft_print_string" style="verticalLabelPosition=bottom;verticalAlign=top;html=1;shape=process;whiteSpace=wrap;rounded=1;size=0.14;arcSize=6;fontSize=12;" vertex="1" parent="1">
          <mxGeometry x="760" y="630" width="100" height="60" as="geometry" />
        </mxCell>
        <mxCell id="54CzL21Gr6Z5AYCmhDpJ-232" value="&quot;(nill)&quot;" style="text;html=1;strokeColor=none;fillColor=none;align=center;verticalAlign=middle;whiteSpace=wrap;rounded=0;fontSize=12;" vertex="1" parent="1">
          <mxGeometry x="780" y="641.5" width="60" height="30" as="geometry" />
        </mxCell>
        <mxCell id="54CzL21Gr6Z5AYCmhDpJ-235" style="edgeStyle=orthogonalEdgeStyle;rounded=0;orthogonalLoop=1;jettySize=auto;html=1;entryX=0;entryY=0.5;entryDx=0;entryDy=0;fontSize=10;" edge="1" parent="1" source="54CzL21Gr6Z5AYCmhDpJ-233" target="54CzL21Gr6Z5AYCmhDpJ-234">
          <mxGeometry relative="1" as="geometry" />
        </mxCell>
        <mxCell id="54CzL21Gr6Z5AYCmhDpJ-238" value="Yes" style="edgeLabel;html=1;align=center;verticalAlign=middle;resizable=0;points=[];fontSize=12;" vertex="1" connectable="0" parent="54CzL21Gr6Z5AYCmhDpJ-235">
          <mxGeometry x="-0.6678" relative="1" as="geometry">
            <mxPoint x="11" y="-1" as="offset" />
          </mxGeometry>
        </mxCell>
        <mxCell id="54CzL21Gr6Z5AYCmhDpJ-242" style="edgeStyle=orthogonalEdgeStyle;rounded=0;orthogonalLoop=1;jettySize=auto;html=1;entryX=0.5;entryY=0;entryDx=0;entryDy=0;entryPerimeter=0;fontSize=12;" edge="1" parent="1" source="54CzL21Gr6Z5AYCmhDpJ-233" target="54CzL21Gr6Z5AYCmhDpJ-240">
          <mxGeometry relative="1" as="geometry" />
        </mxCell>
        <mxCell id="54CzL21Gr6Z5AYCmhDpJ-233" value="value == 0&lt;br&gt;?" style="strokeWidth=2;html=1;shape=mxgraph.flowchart.decision;whiteSpace=wrap;fontSize=12;spacingTop=7;" vertex="1" parent="1">
          <mxGeometry x="920" y="490" width="100" height="100" as="geometry" />
        </mxCell>
        <mxCell id="54CzL21Gr6Z5AYCmhDpJ-234" value="ft_print_string" style="verticalLabelPosition=bottom;verticalAlign=top;html=1;shape=process;whiteSpace=wrap;rounded=1;size=0.14;arcSize=6;fontSize=12;" vertex="1" parent="1">
          <mxGeometry x="1070" y="510" width="100" height="60" as="geometry" />
        </mxCell>
        <mxCell id="54CzL21Gr6Z5AYCmhDpJ-236" value="&quot;0x0&quot;" style="text;html=1;strokeColor=none;fillColor=none;align=center;verticalAlign=middle;whiteSpace=wrap;rounded=0;fontSize=12;" vertex="1" parent="1">
          <mxGeometry x="1090" y="525" width="60" height="30" as="geometry" />
        </mxCell>
        <mxCell id="54CzL21Gr6Z5AYCmhDpJ-240" value="3" style="verticalLabelPosition=bottom;verticalAlign=top;html=1;shape=mxgraph.flowchart.on-page_reference;fontSize=10;spacingTop=-28;spacing=0;" vertex="1" parent="1">
          <mxGeometry x="953" y="630" width="34" height="34" as="geometry" />
        </mxCell>
        <mxCell id="54CzL21Gr6Z5AYCmhDpJ-246" value="total_characters" style="shape=parallelogram;perimeter=parallelogramPerimeter;whiteSpace=wrap;html=1;fixedSize=1;fontSize=12;" vertex="1" parent="1">
          <mxGeometry x="340" y="406.5" width="120" height="60" as="geometry" />
        </mxCell>
        <mxCell id="54CzL21Gr6Z5AYCmhDpJ-249" style="edgeStyle=orthogonalEdgeStyle;rounded=0;orthogonalLoop=1;jettySize=auto;html=1;fontSize=12;entryX=0.5;entryY=0;entryDx=0;entryDy=0;" edge="1" parent="1" source="54CzL21Gr6Z5AYCmhDpJ-247" target="54CzL21Gr6Z5AYCmhDpJ-250">
          <mxGeometry relative="1" as="geometry">
            <mxPoint x="1507" y="80" as="targetPoint" />
          </mxGeometry>
        </mxCell>
        <mxCell id="54CzL21Gr6Z5AYCmhDpJ-247" value="3" style="verticalLabelPosition=bottom;verticalAlign=top;html=1;shape=mxgraph.flowchart.on-page_reference;fontSize=10;spacingTop=-28;spacing=0;" vertex="1" parent="1">
          <mxGeometry x="1490" y="6" width="34" height="34" as="geometry" />
        </mxCell>
        <mxCell id="54CzL21Gr6Z5AYCmhDpJ-255" style="edgeStyle=orthogonalEdgeStyle;rounded=0;orthogonalLoop=1;jettySize=auto;html=1;entryX=0.5;entryY=0;entryDx=0;entryDy=0;fontSize=12;" edge="1" parent="1" target="54CzL21Gr6Z5AYCmhDpJ-253">
          <mxGeometry relative="1" as="geometry">
            <mxPoint x="1507" y="170" as="sourcePoint" />
          </mxGeometry>
        </mxCell>
        <mxCell id="54CzL21Gr6Z5AYCmhDpJ-250" value="ft_print_string" style="verticalLabelPosition=bottom;verticalAlign=top;html=1;shape=process;whiteSpace=wrap;rounded=1;size=0.14;arcSize=6;fontSize=12;" vertex="1" parent="1">
          <mxGeometry x="1457" y="80" width="100" height="60" as="geometry" />
        </mxCell>
        <mxCell id="54CzL21Gr6Z5AYCmhDpJ-252" value="&quot;0x&quot;" style="text;html=1;strokeColor=none;fillColor=none;align=center;verticalAlign=middle;whiteSpace=wrap;rounded=0;fontSize=12;" vertex="1" parent="1">
          <mxGeometry x="1477" y="95" width="60" height="30" as="geometry" />
        </mxCell>
        <mxCell id="54CzL21Gr6Z5AYCmhDpJ-257" value="" style="edgeStyle=orthogonalEdgeStyle;rounded=0;orthogonalLoop=1;jettySize=auto;html=1;fontSize=12;entryX=0.5;entryY=0;entryDx=0;entryDy=0;entryPerimeter=0;" edge="1" parent="1" source="54CzL21Gr6Z5AYCmhDpJ-253" target="54CzL21Gr6Z5AYCmhDpJ-258">
          <mxGeometry relative="1" as="geometry">
            <mxPoint x="1507" y="315" as="targetPoint" />
          </mxGeometry>
        </mxCell>
        <mxCell id="54CzL21Gr6Z5AYCmhDpJ-253" value="ft_aux" style="rounded=1;whiteSpace=wrap;html=1;absoluteArcSize=1;arcSize=14;strokeWidth=2;" vertex="1" parent="1">
          <mxGeometry x="1457" y="200" width="100" height="50" as="geometry" />
        </mxCell>
        <mxCell id="54CzL21Gr6Z5AYCmhDpJ-260" style="edgeStyle=orthogonalEdgeStyle;rounded=0;orthogonalLoop=1;jettySize=auto;html=1;entryX=0;entryY=0.5;entryDx=0;entryDy=0;fontSize=12;exitX=0.5;exitY=1;exitDx=0;exitDy=0;exitPerimeter=0;" edge="1" parent="1" source="54CzL21Gr6Z5AYCmhDpJ-258" target="54CzL21Gr6Z5AYCmhDpJ-253">
          <mxGeometry relative="1" as="geometry">
            <Array as="points">
              <mxPoint x="1507" y="430" />
              <mxPoint x="1390" y="430" />
              <mxPoint x="1390" y="225" />
            </Array>
          </mxGeometry>
        </mxCell>
        <mxCell id="54CzL21Gr6Z5AYCmhDpJ-261" value="Yes" style="edgeLabel;html=1;align=center;verticalAlign=middle;resizable=0;points=[];fontSize=12;" vertex="1" connectable="0" parent="54CzL21Gr6Z5AYCmhDpJ-260">
          <mxGeometry x="-0.8182" y="-1" relative="1" as="geometry">
            <mxPoint x="1" y="-20" as="offset" />
          </mxGeometry>
        </mxCell>
        <mxCell id="54CzL21Gr6Z5AYCmhDpJ-262" value="value / 16" style="edgeLabel;html=1;align=center;verticalAlign=middle;resizable=0;points=[];fontSize=12;" vertex="1" connectable="0" parent="54CzL21Gr6Z5AYCmhDpJ-260">
          <mxGeometry x="0.283" y="1" relative="1" as="geometry">
            <mxPoint y="7" as="offset" />
          </mxGeometry>
        </mxCell>
        <mxCell id="54CzL21Gr6Z5AYCmhDpJ-258" value="value != 0&lt;br&gt;?" style="strokeWidth=2;html=1;shape=mxgraph.flowchart.decision;whiteSpace=wrap;fontSize=12;" vertex="1" parent="1">
          <mxGeometry x="1457" y="287" width="100" height="100" as="geometry" />
        </mxCell>
      </root>
    </mxGraphModel>
  </diagram>
</mxfile>
